:FULLY-SPECIFIED
:FORCE-ALL-JOINTS-BE-3DOF
:DEGREES
2344
root 1.41746 14.3458 -18.833 962.812 -80.4051 125.511
lfemur -18.6572 -2.59529 10.5384
ltibia 23.3903 0 0
lfoot -9.69101 16.3792 0
ltoes -34.9035 0 0
rfemur -67.0782 -9.39264 8.11664
rtibia 77.4354 0 0
rfoot -13.4642 -12.8815 0
rtoes 0.586062 0 0
lowerback 21.679 2.69526 -2.91847
upperback 0.904419 2.66333 0.16203
thorax -11.3439 1.35576 1.05459
lowerneck -6.35586 -2.67323 -5.03823
upperneck 2.62307 -3.20406 0.533627
head 1.90125 -1.64218 0.919313
lclavicle 1.25068e-14 -9.8639e-15 0
lhumerus -41.0999 -23.1624 91.7116
lradius 103.171 0 0
lwrist 74.0564 0 0
lhand -16.347 398.784 0
lfingers 7.12502 0 0
lthumb 9.86694 -651.345 0
rclavicle 1.25068e-14 -9.8639e-15 0
rhumerus 50.1996 8.11606 -38.1056
rradius 49.3603 0 0
rwrist 3.91098 0 0
rhand -7.13729 -400.253 0
rfingers 7.12502 0 0
rthumb 18.7443 290.555 0
2345
root 1.53188 14.4046 -18.9858 966.538 -82.76 122.01
lfemur -20.1247 -2.56141 10.9343
ltibia 22.8999 0 0
lfoot -9.25254 15.5275 0
ltoes -33.9225 0 0
rfemur -66.7417 -8.84944 7.82605
rtibia 77.257 0 0
rfoot -13.8395 -12.7679 0
rtoes 0.413284 0 0
lowerback 21.6542 2.65802 -2.89434
upperback 0.860949 2.64061 0.166514
thorax -11.3725 1.34533 1.05012
lowerneck -6.35119 -2.51829 -4.91476
upperneck 2.71696 -3.01727 0.418399
head 1.9226 -1.5539 0.85312
lclavicle 9.34898e-15 -8.25499e-15 0
lhumerus -40.226 -23.7307 91.4812
lradius 103.697 0 0
lwrist 74.7114 0 0
lhand -16.5296 398.982 0
lfingers 7.12502 0 0
lthumb 9.69066 -651.138 0
rclavicle 9.34898e-15 -8.25499e-15 0
rhumerus 49.7894 8.22094 -37.774
rradius 49.503 0 0
rwrist 3.88054 0 0
rhand -7.20009 -400.484 0
rfingers 7.12502 0 0
rthumb 18.6836 290.323 0
2346
root 1.64629 14.4633 -19.1386 970.798 -84.7118 117.977
lfemur -21.7368 -2.50892 11.1585
ltibia 22.7189 0 0
lfoot -8.79562 14.7026 0
ltoes -32.8992 0 0
rfemur -66.3179 -8.22066 7.59651
rtibia 77.0711 0 0
rfoot -14.2613 -12.6915 0
rtoes 0.23407 0 0
lowerback 21.6147 2.61067 -2.84404
upperback 0.807045 2.6127 0.176358
thorax -11.4037 1.33133 1.03832
lowerneck -6.33601 -2.30658 -4.75019
upperneck 2.82835 -2.75391 0.257385
head 1.95258 -1.42856 0.77022
lclavicle 6.16369e-15 -6.65561e-15 0
lhumerus -38.8079 -24.4115 91.0138
lradius 104.247 0 0
lwrist 74.8923 0 0
lhand -16.7991 399.16 0
lfingers 7.12502 0 0
lthumb 9.43056 -650.952 0
rclavicle 6.16369e-15 -6.65561e-15 0
rhumerus 49.1528 8.53802 -37.5887
rradius 49.827 0 0
rwrist 3.78632 0 0
rhand -7.22759 -400.719 0
rfingers 7.12502 0 0
rthumb 18.6568 290.092 0
2347
root 1.76071 14.522 -19.2915 975.727 -86.2236 113.284
lfemur -23.5469 -2.43885 11.1968
ltibia 22.9023 0 0
lfoot -8.30725 13.8955 0
ltoes -31.8185 0 0
rfemur -65.7861 -7.48019 7.43707
rtibia 76.8758 0 0
rfoot -14.7411 -12.6834 0
rtoes 0.0428843 0 0
lowerback 21.5675 2.55132 -2.75393
upperback 0.743666 2.57953 0.193893
thorax -11.4401 1.31308 1.01394
lowerneck -6.31436 -2.02012 -4.53113
upperneck 2.95836 -2.38897 0.0341478
head 1.9918 -1.25389 0.664803
lclavicle 2.94865e-15 -5.0977e-15 0
lhumerus -36.7196 -25.2273 90.2521
lradius 104.825 0 0
lwrist 74.5103 0 0
lhand -17.1638 399.294 0
lfingers 7.12502 0 0
lthumb 9.07845 -650.809 0
rclavicle 2.94865e-15 -5.0977e-15 0
rhumerus 48.2494 9.12179 -37.5643
rradius 50.3939 0 0
rwrist 3.59265 0 0
rhand -7.20201 -400.957 0
rfingers 7.12502 0 0
rthumb 18.6808 289.865 0
2348
root 1.87512 14.5808 -19.4443 981.459 -87.2587 107.803
lfemur -25.6081 -2.35224 11.035
ltibia 23.5054 0 0
lfoot -7.77443 13.0969 0
ltoes -30.6657 0 0
rfemur -65.1254 -6.60189 7.35679
rtibia 76.6692 0 0
rfoot -15.2905 -12.7745 0
rtoes -0.165812 0 0
lowerback 21.5196 2.47809 -2.61039
upperback 0.671771 2.54103 0.221451
thorax -11.4844 1.28989 0.971717
lowerneck -6.29026 -1.64093 -4.24417
upperneck 3.10809 -1.89743 -0.267752
head 2.04085 -1.01762 0.531058
lclavicle -2.98453e-16 -3.6132e-15 0
lhumerus -33.8349 -26.2002 89.1387
lradius 105.436 0 0
lwrist 73.4763 0 0
lhand -17.6322 399.361 0
lfingers 7.12502 0 0
lthumb 8.62614 -650.735 0
rclavicle -2.98453e-16 -3.6132e-15 0
rhumerus 47.0384 10.0267 -37.7151
rradius 51.2652 0 0
rwrist 3.26389 0 0
rhand -7.10557 -401.196 0
rfingers 7.12502 0 0
rthumb 18.7729 289.645 0
2349
root 1.98954 14.6395 -19.5971 988.13 -87.7801 101.407
lfemur -27.9738 -2.25013 10.6591
ltibia 24.5834 0 0
lfoot -7.18417 12.2978 0
ltoes -29.4257 0 0
rfemur -64.3153 -5.55964 7.3647
rtibia 76.4495 0 0
rfoot -15.9209 -12.996 0
rtoes -0.397556 0 0
lowerback 21.4781 2.38912 -2.39977
upperback 0.59232 2.49712 0.261361
thorax -11.5392 1.26108 0.906384
lowerneck -6.26776 -1.15104 -3.8759
upperneck 3.27867 -1.25427 -0.664755
head 2.10031 -0.707467 0.363176
lclavicle -3.57991e-15 -2.23405e-15 0
lhumerus -30.0276 -27.3526 87.6162
lradius 106.082 0 0
lwrist 71.7013 0 0
lhand -18.213 399.338 0
lfingers 7.12502 0 0
lthumb 8.06543 -650.75 0
rclavicle -3.57991e-15 -2.23405e-15 0
rhumerus 45.4793 11.3073 -38.0556
rradius 52.5026 0 0
rwrist 2.76438 0 0
rhand -6.92051 -401.433 0
rfingers 7.12502 0 0
rthumb 18.9502 289.435 0
2350
root 2.10395 14.6983 -19.7499 995.875 -87.7509 93.9681
lfemur -30.6973 -2.13355 10.0549
ltibia 26.1914 0 0
lfoot -6.52348 11.4892 0
ltoes -28.0836 0 0
rfemur -63.3348 -4.32732 7.46987
rtibia 76.2148 0 0
rfoot -16.6439 -13.3788 0
rtoes -0.657885 0 0
lowerback 21.4501 2.28253 -2.10845
upperback 0.506273 2.44775 0.315956
thorax -11.607 1.22598 0.812684
lowerneck -6.25088 -0.532451 -3.41293
upperneck 3.47119 -0.434471 -1.1733
head 2.17078 -0.311154 0.155345
lclavicle -6.89804e-15 -9.9219e-16 0
lhumerus -25.1715 -28.7065 85.6273
lradius 106.768 0 0
lwrist 69.0962 0 0
lhand -18.9144 399.202 0
lfingers 7.12502 0 0
lthumb 7.38813 -650.88 0
rclavicle -6.89804e-15 -9.9219e-16 0
rhumerus 43.5315 13.0181 -38.6001
rradius 54.1676 0 0
rwrist 2.05848 0 0
rhand -6.62902 -401.669 0
rfingers 7.12502 0 0
rthumb 19.2297 289.237 0
2351
root 2.21837 14.757 -19.9028 1004.83 -87.1343 85.3583
lfemur -33.8318 -2.00356 9.20831
ltibia 28.3846 0 0
lfoot -5.77936 10.6618 0
ltoes -26.6246 0 0
rfemur -62.1633 -2.87881 7.68135
rtibia 75.9631 0 0
rfoot -17.471 -13.9539 0
rtoes -0.952337 0 0
lowerback 21.4426 2.15644 -1.72278
upperback 0.414589 2.39282 0.387565
thorax -11.6905 1.18388 0.685354
lowerneck -6.24366 0.232802 -2.84183
upperneck 3.68677 0.586975 -1.80982
head 2.25285 0.183595 -0.0982427
lclavicle -1.02551e-14 8.04464e-17 0
lhumerus -19.1405 -30.2842 83.1146
lradius 107.497 0 0
lwrist 65.5721 0 0
lhand -19.7451 398.93 0
lfingers 7.12502 0 0
lthumb 6.58606 -651.147 0
rclavicle -1.02551e-14 8.04464e-17 0
rhumerus 41.1544 15.2135 -39.363
rradius 56.3218 0 0
rwrist 1.11052 0 0
rhand -6.21335 -401.9 0
rfingers 7.12502 0 0
rthumb 19.6285 289.057 0
2352
root 2.33278 14.8158 -20.0556 1015.12 -85.8934 75.45
lfemur -37.4307 -1.86118 8.10521
ltibia 31.2182 0 0
lfoot -4.93882 9.80664 0
ltoes -25.0338 0 0
rfemur -60.78 -1.18797 8.00819
rtibia 75.6926 0 0
rfoot -18.4137 -14.7525 0
rtoes -1.28645 0 0
lowerback 21.4627 2.00899 -1.22912
upperback 0.318227 2.33229 0.478521
thorax -11.7924 1.13412 0.519134
lowerneck -6.25012 1.1627 -2.14922
upperneck 3.92653 1.83509 -2.59076
head 2.3471 0.789057 -0.403399
lclavicle -1.36535e-14 9.51916e-16 0
lhumerus -11.8085 -32.1081 80.0208
lradius 108.272 0 0
lwrist 61.0398 0 0
lhand -20.7135 398.499 0
lfingers 7.12502 0 0
lthumb 5.65102 -651.574 0
rclavicle -1.36535e-14 9.51916e-16 0
rhumerus 38.3074 17.948 -40.3588
rradius 59.0269 0 0
rwrist -0.115143 0 0
rhand -5.65572 -402.126 0
rfingers 7.12502 0 0
rthumb 20.1638 288.895 0
2353
root 2.4472 14.8745 -20.2084 1026.9 -83.9913 64.1156
lfemur -41.5473 -1.70747 6.73147
ltibia 34.7473 0 0
lfoot -3.98886 8.91457 0
ltoes -23.2961 0 0
rfemur -59.1643 0.771305 8.45943
rtibia 75.4015 0 0
rfoot -19.4835 -15.8055 0
rtoes -1.66576 0 0
lowerback 21.5176 1.83828 -0.613846
upperback 0.218146 2.26606 0.591154
thorax -11.9152 1.076 0.308761
lowerneck -6.2743 2.27523 -1.32168
upperneck 4.19158 3.33489 -3.53256
head 2.45413 1.51751 -0.765933
lclavicle -1.70955e-14 1.59028e-15 0
lhumerus -3.04923 -34.2002 76.2885
lradius 109.098 0 0
lwrist 55.4105 0 0
lhand -21.828 397.885 0
lfingers 7.12502 0 0
lthumb 4.57482 -652.185 0
rclavicle -1.70955e-14 1.59028e-15 0
rhumerus 34.95 21.2761 -41.6019
rradius 62.3443 0 0
rwrist -1.65416 0 0
rhand -4.93833 -402.345 0
rfingers 7.12502 0 0
rthumb 20.8527 288.756 0
2354
root 2.38125 14.8777 -20.3762 1038.52 -81.8787 52.9706
lfemur -45.5903 -1.59972 5.20047
ltibia 38.4634 0 0
lfoot -3.0753 8.10623 0
ltoes -21.7897 0 0
rfemur -57.5912 2.75058 8.94802
rtibia 75.1287 0 0
rfoot -20.5287 -16.8802 0
rtoes -1.97221 0 0
lowerback 21.5866 1.65543 0.0195738
upperback 0.121943 2.18554 0.706221
thorax -12.0423 1.00995 0.0943862
lowerneck -6.2942 3.43556 -0.463518
upperneck 4.45271 4.90255 -4.51477
head 2.56364 2.27931 -1.13962
lclavicle -2.05092e-14 1.95467e-15 0
lhumerus 6.13025 -36.4515 72.3342
lradius 109.873 0 0
lwrist 49.378 0 0
lhand -22.9283 397.161 0
lfingers 7.12502 0 0
lthumb 3.51237 -652.906 0
rclavicle -2.05092e-14 1.95467e-15 0
rhumerus 31.6594 24.7047 -42.8359
rradius 65.6572 0 0
rwrist -3.07418 0 0
rhand -4.17049 -402.601 0
rfingers 7.12502 0 0
rthumb 21.59 288.584 0
2355
root 2.31531 14.8809 -20.5441 1048.34 -79.9889 43.6141
lfemur -48.967 -1.58456 3.63906
ltibia 41.8441 0 0
lfoot -2.3432 7.50066 0
ltoes -20.8579 0 0
rfemur -56.3278 4.49304 9.38687
rtibia 74.9114 0 0
rfoot -21.3996 -17.7382 0
rtoes -2.0996 0 0
lowerback 21.6437 1.47389 0.563354
upperback 0.0358348 2.0848 0.803954
thorax -12.1556 0.937914 -0.0825834
lowerneck -6.28692 4.4989 0.314315
upperneck 4.6817 6.34025 -5.40827
head 2.66525 2.97792 -1.47551
lclavicle -2.37904e-14 2.04422e-15 0
lhumerus 14.6521 -38.7197 68.6116
lradius 110.501 0 0
lwrist 43.6831 0 0
lhand -23.8606 396.422 0
lfingers 7.12502 0 0
lthumb 2.61201 -653.642 0
rclavicle -2.37904e-14 2.04422e-15 0
rhumerus 28.9923 27.7276 -43.8211
rradius 68.352 0 0
rwrist -3.96486 0 0
rhand -3.47118 -402.93 0
rfingers 7.12502 0 0
rthumb 22.2615 288.334 0
